<?xml version="1.0" standalone="no"?>
<!DOCTYPE svg PUBLIC "-//W3C//DTD SVG 20010904//EN"
 "http://www.w3.org/TR/2001/REC-SVG-20010904/DTD/svg10.dtd">
<svg version="1.0" xmlns="http://www.w3.org/2000/svg"
 width="700.000000pt" height="700.000000pt" viewBox="0 0 700.000000 700.000000"
 preserveAspectRatio="xMidYMid meet">
<metadata>
Created by potrace 1.11, written by Peter Selinger 2001-2013
</metadata>
<g transform="translate(0.000000,700.000000) scale(0.100000,-0.100000)"
fill="#000000" stroke="none">
<path d="M1127 5890 c3 -8 11 -28 18 -45 7 -16 65 -169 129 -340 64 -170 121
-319 126 -330 5 -11 59 -153 120 -315 61 -162 115 -304 120 -315 5 -11 61
-155 124 -320 63 -165 227 -597 366 -960 139 -363 284 -743 322 -845 39 -102
78 -205 88 -230 10 -25 34 -90 54 -145 21 -55 42 -109 47 -120 5 -11 84 -216
175 -455 91 -239 169 -444 174 -455 7 -20 17 -20 383 -20 l376 0 25 65 c14 36
57 151 96 255 39 105 75 199 80 210 5 11 140 364 300 785 160 421 294 774 299
785 5 11 29 74 54 140 25 66 76 199 112 295 37 96 80 211 97 255 17 44 50 130
73 190 24 61 57 148 74 195 18 47 36 94 40 105 5 11 23 56 39 100 88 233 217
572 314 825 60 157 116 303 123 325 8 22 43 114 78 205 36 91 63 166 62 168
-6 7 -678 3 -685 -5 -5 -4 -45 -105 -89 -223 -87 -234 -167 -445 -296 -785
-46 -121 -156 -413 -244 -650 -89 -236 -166 -439 -171 -450 -5 -11 -24 -63
-44 -115 -65 -179 -286 -765 -295 -785 -5 -11 -21 -54 -36 -95 -66 -178 -76
-206 -85 -225 -5 -11 -73 -192 -152 -402 -78 -210 -146 -379 -150 -375 -3 4
-68 171 -143 372 -75 201 -140 374 -145 385 -5 11 -19 47 -30 80 -12 33 -25
69 -30 80 -5 11 -44 112 -85 225 -42 113 -87 232 -100 265 -13 33 -111 296
-219 585 -108 289 -203 541 -211 560 -16 40 -57 149 -186 495 -50 132 -94 249
-99 260 -5 11 -75 195 -155 409 -80 214 -147 391 -149 393 -2 2 -158 4 -348 6
-303 2 -345 0 -341 -13z"/>
</g>
</svg>
